<?xml version="1.0" encoding="UTF-8"?>
<!DOCTYPE svg PUBLIC "-//W3C//DTD SVG 1.1//EN" "http://www.w3.org/Graphics/SVG/1.1/DTD/svg11.dtd">
<!-- Creator: CorelDRAW 2018 (64-Bit) -->
<svg xmlns="http://www.w3.org/2000/svg" xml:space="preserve" width="297mm" height="420mm" version="1.1" style="shape-rendering:geometricPrecision; text-rendering:geometricPrecision; image-rendering:optimizeQuality; fill-rule:evenodd; clip-rule:evenodd"
viewBox="0 0 29700 42000"
 xmlns:xlink="http://www.w3.org/1999/xlink">
 <defs>
  <style type="text/css">
   <![CDATA[
    .fil0 {fill:#0046AF}
    .fil2 {fill:#029FE3}
    .fil1 {fill:#FF7A00}
    .fil3 {fill:white}
    .fil4 {fill:#029FE3;fill-rule:nonzero}
    .fil5 {fill:#FF7A00;fill-rule:nonzero}
    .fil6 {fill:white;fill-rule:nonzero}
   ]]>
  </style>
 </defs>
 <g id="Layer_x0020_1">
  <metadata id="CorelCorpID_0Corel-Layer"/>
  <path class="fil0" d="M6812.11 7598.65l-623.62 3671.59c-1586.49,664.95 -2276.19,1322.44 -2996.91,2803.99l706.37 -4291.84c385.98,-1395.87 1367.79,-2160.18 2914.16,-2183.74z"/>
  <path class="fil1" d="M7090.12 12379.06c-1256.28,-94.78 -2955.91,527.05 -3641.13,1616.91 449.34,-1229.7 1798.43,-2069.48 2999.42,-2399.6 163.57,-556.94 265.55,-1497.81 367.87,-2105.49 157.07,-932.95 47.61,-1203.26 957.15,-1289.08l-683.31 4177.26z"/>
  <path class="fil2" d="M7744.82 13190.91c-1725.34,-420.59 -3591.05,245.07 -4048.57,803.93 791.75,-1080.6 2416.34,-1348.11 3664.52,-1306.97l498.03 -2972.06c151.78,-916.94 1546.78,-534.19 939.6,264.28 225.77,-452.25 -243.24,-632.58 -486.49,-134.33l-567.09 3345.15z"/>
  <path class="fil2" d="M4594.36 10059.15l222.28 -1429.15c277.16,-378.1 767.16,-698.81 1662.62,-756.65l-220.14 1406.91c-399.83,257.24 -890.93,60.37 -1664.76,778.89z"/>
  <path class="fil3" d="M4275.05 10365.93l222.27 -1429.14c277.17,-378.1 767.17,-698.81 1662.62,-756.65l-220.13 1406.91c-399.84,257.24 -890.94,60.36 -1664.76,778.88z"/>
  <path class="fil1" d="M6997.84 8365.99l111.13 -714.56c138.58,-189.05 383.58,-349.41 831.3,-378.32l-110.06 703.44c-199.92,128.62 -445.47,30.18 -832.37,389.44z"/>
  <g id="_3202640201584">
   <path class="fil4" d="M10170.37 8840.88l0 942.28 144.42 0c214.2,0 373.06,-38.51 476.55,-116.13 103.5,-77.62 155.24,-196.77 155.24,-357.42 0,-158.86 -51.74,-276.19 -154.64,-353.2 -102.89,-77.02 -261.73,-115.53 -477.15,-115.53l-144.42 0zm0 1880.96l335.76 0 0 361.02 -1079.48 0 0 -361.02 278 0 0 -1877.35 -278 0 0 -361.03 888.14 0c362.82,0 637.21,70.4 822.54,210.61 185.92,140.79 278.59,347.19 278.59,619.75 0,272.59 -93.27,478.37 -279.19,617.96 -186.53,138.99 -460.32,208.8 -821.94,208.8l-144.42 0 0 581.26zm2133.69 119.13c0,232.26 -52.36,401.35 -157.66,506.64 -105.3,105.3 -276.18,157.66 -511.46,157.66 -31.28,0 -55.95,0 -72.8,-0.6 -17.45,-0.62 -33.69,-2.42 -48.74,-4.82l0 -453.1c19.86,1.22 39.11,2.42 57.17,3.02 18.65,0.6 35.5,0.6 50.54,0.6 72.81,0 126.96,-19.25 161.26,-58.36 34.89,-38.51 52.34,-98.08 52.34,-177.52l0 -1970 -314.1 0 0 -361.03 1057.82 0 0 361.03 -274.37 0 0 1996.48zm974.76 21.66l0 220.23 -375.47 0 0 -880.91 375.47 0c49.34,186.53 125.76,328.54 229.86,425.41 104.1,96.88 233.46,145.02 388.71,145.02 118.53,0 218.41,-37.31 299.65,-112.53 81.23,-75.2 121.54,-167.87 121.54,-276.78 0,-98.68 -34.89,-179.3 -104.69,-241.29 -69.81,-62.57 -187.74,-116.73 -353.21,-163.66l-296.05 -83.03c-237.67,-66.21 -410.36,-156.46 -518.07,-270.79 -107.7,-114.91 -161.26,-263.53 -161.26,-447.07 0,-211.79 74.61,-388.7 223.85,-530.7 149.22,-142.61 335.74,-213.61 558.98,-213.61 120.35,0 231.06,18.66 333.34,56.55 102.3,37.31 190.15,92.07 262.96,164.27l0 -170.28 361.03 0 0 772.61 -361.03 0c-40.91,-154.04 -105.3,-268.97 -191.95,-344.79 -87.25,-75.82 -197.37,-113.73 -331.54,-113.73 -113.12,0 -205.18,30.69 -276.19,92.67 -71,61.37 -106.5,140.2 -106.5,235.27 0,81.24 22.87,145.61 67.99,193.15 45.13,47.54 124.56,87.85 238.88,120.95l315.31 90.25c290.01,84.25 494.59,187.13 612.54,309.28 117.93,121.54 176.9,284.61 176.9,488.59 0,243.69 -74.02,438.66 -221.43,585.46 -147.42,146.83 -342.99,220.23 -587.28,220.23 -138.99,0 -265.95,-22.86 -380.88,-68.59 -114.93,-45.74 -215.41,-113.13 -301.46,-202.18z"/>
   <path class="fil5" d="M15004.53 11082.86l0 -361.02 278 0 0 -1877.35 -278 0 0 -361.03 1061.43 0 0 364.65 -317.71 0 0 1873.73 649.85 0 0 -407.98 422.41 0 0 769 -1815.98 0zm2078.93 -1953.15l0 -444.07 555.98 0 0 444.07 -555.98 0zm555.98 1602.95l241.89 0 0 350.2 -917.02 0 0 -350.2 256.34 0 0 -978.38 -252.72 0 0 -350.2 671.51 0 0 1328.58zm1036.15 -487.38c0,144.4 46.33,264.15 138.39,359.22 92.67,95.06 206.98,142.6 344.78,142.6 138.39,0 253.92,-47.54 345.98,-142 92.07,-94.47 138.4,-214.22 138.4,-359.82 0,-145.61 -46.33,-266.56 -139,-362.24 -93.26,-95.67 -208.19,-143.21 -345.38,-143.21 -137.8,0 -252.11,47.54 -344.78,143.21 -92.06,95.68 -138.39,216.63 -138.39,362.24zm-639.02 837.58l0 -350.2 234.66 0 0 -1899 -234.66 0 0 -350.2 649.85 0 0 1101.13c76.41,-75.2 158.84,-131.17 246.69,-168.47 88.45,-36.71 182.94,-55.35 284.02,-55.35 243.69,0 446.47,84.83 608.92,253.92 161.87,169.07 243.1,377.86 243.1,626.97 0,256.34 -79.42,466.93 -238.88,632.4 -159.45,165.48 -363.43,248.51 -613.14,248.51 -102.3,0 -198.57,-19.25 -290.03,-57.16 -90.85,-37.91 -171.49,-92.66 -240.68,-163.07l0 180.52 -649.85 0zm2881.61 -1436.29l21.06 -7.22c23.46,-84.84 61.97,-149.82 114.93,-195.55 52.94,-45.74 116.73,-68.6 191.93,-68.6 86.05,0 157.06,28.28 213.01,84.85 55.96,55.95 83.64,127.56 83.64,214.81 0,86.64 -27.68,158.24 -83.04,213 -55.35,55.35 -127.56,83.03 -216.61,83.03 -67.39,0 -126.36,-19.85 -177.5,-58.96 -51.16,-39.12 -92.07,-96.88 -122.76,-172.1l-24.66 10.83 0 982 234.66 0 0 350.2 -888.13 0 0 -350.2 234.67 0 0 -978.38 -234.67 0 0 -350.2 653.47 0 0 242.49zm2591.57 1086.09l234.67 0 0 350.2 -653.46 0 0 -180.52c-70.41,71.61 -150.43,126.36 -240.68,163.67 -89.66,37.91 -184.73,56.56 -285.81,56.56 -249.11,0 -453.09,-83.03 -613.16,-248.51 -159.44,-165.47 -239.48,-376.06 -239.48,-632.4 0,-249.11 81.24,-457.9 243.1,-626.97 161.85,-169.09 365.23,-253.92 609.54,-253.92 99.88,0 193.14,18.64 279.78,55.35 87.25,37.3 169.09,93.27 246.71,168.47l0 -180.51 653.46 0 0 350.2 -234.67 0 0 978.38zm-1371.91 -487.38c0,148.02 45.14,268.36 134.79,361.63 89.66,93.27 205.79,140.19 347.79,140.19 139,0 253.92,-47.54 346.59,-142 92.05,-94.47 138.39,-214.22 138.39,-359.82 0,-145.61 -46.94,-266.56 -139.59,-362.24 -92.67,-95.67 -207.59,-143.21 -345.39,-143.21 -142,0 -258.13,46.94 -347.79,140.81 -89.65,93.87 -134.79,215.41 -134.79,364.64zm2473.65 -598.71l21.06 -7.22c23.46,-84.84 61.97,-149.82 114.93,-195.55 52.94,-45.74 116.73,-68.6 191.93,-68.6 86.05,0 157.06,28.28 213.01,84.85 55.96,55.95 83.64,127.56 83.64,214.81 0,86.64 -27.68,158.24 -83.04,213 -55.35,55.35 -127.56,83.03 -216.61,83.03 -67.39,0 -126.36,-19.85 -177.5,-58.96 -51.16,-39.12 -92.07,-96.88 -122.76,-172.1l-24.66 10.83 0 982 234.66 0 0 350.2 -888.13 0 0 -350.2 234.67 0 0 -978.38 -234.67 0 0 -350.2 653.47 0 0 242.49zm1953.15 2187.22l-942.88 0 0 -350.18 264.75 0 220.23 -444.07 -560.79 -1285.26 -209.39 0 0 -350.2 856.23 0 0 350.2 -223.84 0 361.63 863.46 374.87 -863.46 -216.62 0 0 -350.2 840.59 0 0 350.2 -206.38 0 -822.55 1729.33 264.15 0 0 350.18z"/>
  </g>
  <polygon class="fil2" points="9425.14,11882.63 26560.64,11882.63 26560.64,13048.75 9425.14,13048.75 "/>
  <path class="fil6" d="M10346.4 12381.89l0 -1.58c0,-113.03 -79.71,-191.29 -211.48,-191.29l-225.69 0 0 553.32 121.52 0 0 -165.99 92.33 0c123.89,0 223.32,-66.4 223.32,-194.46zm-123.1 2.38c0,47.42 -35.51,83.78 -96.28,83.78l-96.27 0 0 -169.15 93.9 0c60.77,0 98.65,29.24 98.65,83.79l0 1.58zm633.65 358.07l0 -108.29 -299.86 0 0 -116.2 260.41 0 0 -108.29 -260.41 0 0 -112.24 295.92 0 0 -108.3 -416.66 0 0 553.32 420.6 0zm585.51 0l-134.94 -197.61c70.23,-26.09 118.37,-82.21 118.37,-171.53l0 -1.58c0,-113.83 -78.12,-182.6 -208.32,-182.6l-252.52 0 0 553.32 121.53 0 0 -177.06 95.48 0 118.36 177.06 142.04 0zm-139.67 -362.82c0,46.64 -33.93,78.26 -93.11,78.26l-123.1 0 0 -158.88 120.73 0c59.18,0 95.48,26.87 95.48,79.04l0 1.58zm669.96 2.37l0 -1.58c0,-113.03 -79.7,-191.29 -211.48,-191.29l-225.69 0 0 553.32 121.53 0 0 -165.99 92.32 0c123.89,0 223.32,-66.4 223.32,-194.46zm-123.1 2.38c0,47.42 -35.51,83.78 -96.28,83.78l-96.26 0 0 -169.15 93.9 0c60.77,0 98.64,29.24 98.64,83.79l0 1.58zm685.74 116.98l0 -312.23 -121.53 0 0 316.98c0,87.74 -44.98,132.79 -119.16,132.79 -74.17,0 -119.15,-46.64 -119.15,-136.75l0 -313.02 -121.53 0 0 316.18c0,162.84 90.75,245.83 239.11,245.83 148.34,0 242.26,-82.2 242.26,-249.78zm523.18 77.47l0 -1.58c0,-96.44 -63.14,-136.75 -175.19,-166 -95.48,-24.5 -119.15,-36.36 -119.15,-72.72l0 -1.58c0,-26.88 24.45,-48.22 71.02,-48.22 46.55,0 94.68,20.55 143.61,54.54l63.13 -91.69c-56.03,-45.06 -124.68,-70.35 -205.17,-70.35 -112.85,0 -193.33,66.4 -193.33,166.79l0 1.58c0,109.87 71.81,140.7 183.07,169.15 92.33,23.72 111.27,39.53 111.27,70.35l0 1.58c0,32.41 -29.99,52.17 -79.7,52.17 -63.13,0 -115.21,-26.08 -164.92,-67.18l-71.81 86.15c66.28,59.29 150.71,88.53 234.36,88.53 119.16,0 202.81,-61.65 202.81,-171.52zm512.13 -277.45l0 -112.25 -457.69 0 0 112.25 168.08 0 0 441.07 121.52 0 0 -441.07 168.09 0zm560.25 441.07l-236.72 -557.27 -112.05 0 -236.74 557.27 123.89 0 50.5 -124.1 233.57 0 50.51 124.1 127.04 0zm-220.94 -231.6l-146.77 0 73.38 -179.43 73.39 179.43zm808.83 231.6l-235.15 -318.55 224.9 -234.77 -146.78 0 -224.1 241.88 0 -241.88 -121.52 0 0 553.32 121.52 0 0 -169.16 63.91 -66.39 171.24 235.55 145.98 0zm595.78 0l-236.73 -557.27 -112.05 0 -236.73 557.27 123.89 0 50.5 -124.1 233.57 0 50.51 124.1 127.04 0zm-220.94 -231.6l-146.77 0 73.38 -179.43 73.39 179.43zm828.56 231.6l-236.73 -557.27 -112.05 0 -236.74 557.27 123.89 0 50.51 -124.1 233.57 0 50.5 124.1 127.05 0zm-220.95 -231.6l-146.77 0 73.39 -179.43 73.38 179.43zm797.01 231.6l0 -553.32 -119.95 0 0 340.69 -258.83 -340.69 -112.05 0 0 553.32 119.95 0 0 -351.75 267.5 351.75 103.38 0zm768.6 -163.62l0 -1.58c0,-96.44 -63.13,-136.75 -175.18,-166 -95.49,-24.5 -119.16,-36.36 -119.16,-72.72l0 -1.58c0,-26.88 24.46,-48.22 71.02,-48.22 46.55,0 94.69,20.55 143.62,54.54l63.13 -91.69c-56.03,-45.06 -124.69,-70.35 -205.17,-70.35 -112.85,0 -193.33,66.4 -193.33,166.79l0 1.58c0,109.87 71.81,140.7 183.07,169.15 92.33,23.72 111.27,39.53 111.27,70.35l0 1.58c0,32.41 -29.99,52.17 -79.71,52.17 -63.12,0 -115.2,-26.08 -164.92,-67.18l-71.8 86.15c66.27,59.29 150.71,88.53 234.36,88.53 119.15,0 202.8,-61.65 202.8,-171.52zm658.11 163.62l0 -553.32 -130.98 0 -145.2 233.98 -145.2 -233.98 -130.99 0 0 553.32 119.16 0 0 -358.86 153.87 233.97 3.16 0 155.45 -236.35 0 361.24 120.73 0zm635.23 0l-235.15 -318.55 224.9 -234.77 -146.78 0 -224.1 241.88 0 -241.88 -121.52 0 0 553.32 121.52 0 0 -169.16 63.91 -66.39 171.24 235.55 145.98 0zm800.96 0l0 -553.32 -119.94 0 0 340.69 -258.83 -340.69 -112.05 0 0 553.32 119.94 0 0 -351.75 267.51 351.75 103.37 0zm546.86 -452.14c43.4,0 74.18,25.3 74.18,71.93 0,45.85 -26.83,75.89 -95.48,132.8l-183.87 150.98 0 96.43 408.77 0 0 -105.13 -240.68 0 89.95 -69.56c97.86,-75.88 145.2,-122.52 145.2,-215 0,-103.55 -72.6,-171.53 -190.18,-171.53 -98.63,0 -151.5,40.31 -205.95,114.62l85.21 68.76c41.05,-50.58 70.24,-74.3 112.85,-74.3zm1040.06 -101.18l-138.1 0 -134.15 222.12 -131.78 -222.12 -142.04 0 212.27 335.16 0 218.16 121.53 0 0 -220.54 212.27 -332.78zm591.03 276.66l0 -1.58c0,-157.3 -122.31,-284.56 -292.76,-284.56 -170.45,0 -294.34,128.84 -294.34,286.14l0 1.58c0,157.3 122.31,284.57 292.76,284.57 170.45,0 294.34,-128.85 294.34,-286.15zm-127.04 1.58c0,94.86 -67.87,172.32 -165.72,172.32 -97.85,0 -167.29,-79.04 -167.29,-173.9l0 -1.58c0,-94.85 67.87,-172.32 165.71,-172.32 97.85,0 167.3,79.05 167.3,173.9l0 1.58zm737.01 196.83l0 -240.3 -239.88 0 0 105.13 122.31 0 0 79.04c-30.77,22.14 -70.23,33.2 -114.42,33.2 -97.85,0 -167.29,-74.3 -167.29,-175.48l0 -1.58c0,-94.06 70.23,-172.32 158.61,-172.32 63.91,0 101.79,20.56 144.41,56.13l76.54 -92.49c-57.61,-49.01 -117.57,-75.88 -217,-75.88 -167.3,0 -289.61,128.84 -289.61,286.14l0 1.58c0,163.63 118.37,284.57 290.39,284.57 101.01,0 179.13,-39.53 235.94,-87.74zm582.37 -475.07l-138.09 0 -134.15 222.12 -131.78 -222.12 -142.04 0 212.27 335.16 0 218.16 121.52 0 0 -220.54 212.27 -332.78zm527.12 553.32l-236.73 -557.27 -112.05 0 -236.74 557.27 123.89 0 50.51 -124.1 233.57 0 50.5 124.1 127.05 0zm-220.95 -231.6l-146.77 0 73.39 -179.43 73.38 179.43zm808.84 231.6l-235.15 -318.55 224.9 -234.77 -146.78 0 -224.1 241.88 0 -241.88 -121.53 0 0 553.32 121.53 0 0 -169.16 63.91 -66.39 171.24 235.55 145.98 0zm595.78 0l-236.73 -557.27 -112.05 0 -236.74 557.27 123.89 0 50.5 -124.1 233.58 0 50.5 124.1 127.05 0zm-220.95 -231.6l-146.77 0 73.39 -179.43 73.38 179.43zm783.59 231.6l-134.94 -197.61c70.23,-26.09 118.37,-82.21 118.37,-171.53l0 -1.58c0,-113.83 -78.12,-182.6 -208.33,-182.6l-252.51 0 0 553.32 121.52 0 0 -177.06 95.48 0 118.37 177.06 142.04 0zm-139.67 -362.82c0,46.64 -33.94,78.26 -93.12,78.26l-123.1 0 0 -158.88 120.74 0c59.18,0 95.48,26.87 95.48,79.04l0 1.58zm651.02 -78.25l0 -112.25 -457.68 0 0 112.25 168.07 0 0 441.07 121.53 0 0 -441.07 168.08 0zm560.26 441.07l-236.73 -557.27 -112.05 0 -236.74 557.27 123.89 0 50.51 -124.1 233.57 0 50.5 124.1 127.05 0zm-220.95 -231.6l-146.77 0 73.39 -179.43 73.38 179.43z"/>
 </g>
</svg>
